<svg xmlns="http://www.w3.org/2000/svg" width="96" height="96" viewBox="0 0 72 72"><path d="M35.993 10.736L27.79 27.37L9.44 30.044l13.285 12.94l-3.128 18.28l16.412-8.636l16.419 8.624l-3.142-18.278l13.276-12.95l-18.354-2.66z"/><path fill="#3f3f3f" d="M35.993 10.736L27.79 27.37L9.44 30.044l13.285 12.94l-3.128 18.28l16.412-8.636l16.419 8.624l-3.142-18.278l13.276-12.95l-18.354-2.66z"/><path fill="none" stroke="#000" stroke-linecap="round" stroke-linejoin="round" stroke-miterlimit="10" stroke-width="2" d="M35.993 10.736L27.79 27.37L9.44 30.044l13.285 12.94l-3.128 18.28l16.412-8.636l16.419 8.624l-3.142-18.278l13.276-12.95l-18.354-2.66z"/></svg>