<svg xmlns="http://www.w3.org/2000/svg" data-name="Layer 1" viewBox="0 0 64 80" x="0px" y="0px"><path d="M38.6513672,49.3447266c7.8427734,0,14.2236328-6.3808594,14.2236328-14.2236328s-6.3808594-14.2236328-14.2236328-14.2236328-14.2236328,6.3808594-14.2236328,14.2236328,6.3808594,14.2236328,14.2236328,14.2236328Zm-10.1210938-15.2236328c.5527344,0,1,.4477539,1,1,0,5.0292969,4.0917969,9.1210938,9.1210938,9.1210938,.5527344,0,1,.4477539,1,1s-.4472656,1-1,1c-6.1318359,0-11.1210938-4.9887695-11.1210938-11.1210938,0-.5522461,.4472656-1,1-1Z"/><path d="M17.7460938,10.4418945h-5.9667969c-.1152344,0-.2089844,.09375-.2089844,.2094727v3.128418h6.3857422v-3.128418c0-.1157227-.09375-.2094727-.2099609-.2094727Z"/><path d="M8.4599609,15.7797852c-2.4589844,0-4.4599609,2.0009766-4.4599609,4.4604492v31.6396484c0,2.4589844,2.0009766,4.4599609,4.4599609,4.4599609H55.5400391c2.4589844,0,4.4599609-2.0009766,4.4599609-4.4599609V20.2402344c0-2.4594727-2.0009766-4.4604492-4.4599609-4.4604492h-4.1201172c-.3945312,0-.7519531-.2314453-.9130859-.5913086l-3.0703125-6.8598633c-.1796875-.4082031-.5820312-.668457-1.0263672-.668457h-15.5205078c-.4326172,0-.8271484,.2607422-1.0058594,.6645508l-3.0917969,6.8657227c-.1621094,.3588867-.5185547,.5893555-.9121094,.5893555H8.4599609Zm30.1914062,3.1176758c8.9453125,0,16.2236328,7.277832,16.2236328,16.2236328s-7.2783203,16.2236328-16.2236328,16.2236328-16.2236328-7.277832-16.2236328-16.2236328,7.2783203-16.2236328,16.2236328-16.2236328Zm-25.6660156,1.324707h3.5556641c.5527344,0,1,.4477539,1,1s-.4472656,1-1,1h-3.5556641c-.5527344,0-1-.4477539-1-1s.4472656-1,1-1Z"/></svg>