<svg width="1000" height="1000" viewBox="0 0 1000 1000" fill="none" xmlns="http://www.w3.org/2000/svg">
<circle cx="500" cy="500" r="500" fill="#E6EEF0"/>
<path fill-rule="evenodd" clip-rule="evenodd" d="M670.098 370.297V337.494C670.098 327.496 661.887 319.248 651.851 319.248H274.496C264.459 319.248 256.249 327.458 256.249 337.494V370.297H670.098ZM381.555 620.675C379.523 620.675 377.574 619.868 376.136 618.431C374.699 616.993 373.892 615.044 373.892 613.012C373.892 610.98 374.699 609.031 376.136 607.593C377.574 606.156 379.523 605.349 381.555 605.349H497.908C499.94 605.349 501.889 606.156 503.327 607.593C504.764 609.031 505.571 610.98 505.571 613.012C505.571 615.044 504.764 616.993 503.327 618.431C501.889 619.868 499.94 620.675 497.908 620.675H381.555ZM604.372 560.007C615.807 560.007 625.954 565.522 632.299 574.039C638.645 565.522 648.79 560.007 660.227 560.007C679.45 560.007 695.034 575.592 695.034 594.816C695.034 614.039 679.45 629.623 660.227 629.623C648.79 629.623 638.645 624.108 632.299 615.593C625.954 624.108 615.807 629.623 604.372 629.623C585.148 629.623 569.564 614.039 569.564 594.816C569.564 575.592 585.148 560.007 604.372 560.007ZM392.175 460.837H450.603C458.054 460.837 464.15 466.933 464.15 474.384V477.344H378.627V474.384C378.627 466.933 384.724 460.837 392.175 460.837ZM464.15 482.005V510.888H437.619V482.005H464.15ZM432.958 510.888H409.79V482.005H432.958V510.888ZM405.128 510.888H378.627V482.005H405.128V510.888ZM464.15 515.55V518.555C464.15 526.006 458.053 532.103 450.603 532.103H392.175C384.725 532.103 378.627 526.007 378.627 518.555V515.55H464.15ZM381.555 584.284C379.538 584.261 377.611 583.444 376.193 582.009C374.775 580.575 373.98 578.639 373.98 576.621C373.98 574.604 374.775 572.668 376.193 571.234C377.611 569.799 379.538 568.982 381.555 568.959H535.859C536.873 568.947 537.878 569.137 538.818 569.517C539.758 569.897 540.613 570.459 541.334 571.172C542.055 571.885 542.627 572.733 543.018 573.669C543.408 574.604 543.61 575.608 543.61 576.621C543.61 577.635 543.408 578.639 543.018 579.574C542.627 580.51 542.055 581.358 541.334 582.071C540.613 582.784 539.758 583.346 538.818 583.726C537.878 584.106 536.873 584.296 535.859 584.284H381.555ZM256.249 448.127V573.036C256.249 583.072 264.497 591.283 274.496 591.283H317.659V448.127H256.249ZM682.346 396.963H725.506C733.872 396.963 741.479 400.399 746.996 405.915L747.044 405.963C752.568 411.49 756 419.108 756 427.457V663C756 671.325 752.562 678.938 747.038 684.484L746.962 684.559C741.419 690.067 733.818 693.494 725.506 693.494H348.154C339.804 693.494 332.186 690.062 326.659 684.538L326.612 684.49C321.096 678.973 317.659 671.366 317.659 663V603.531H274.496C266.148 603.531 258.527 600.098 253 594.574L252.952 594.526C247.436 589.009 244 581.402 244 573.036V337.495C244 329.096 247.429 321.467 252.948 315.948C253.235 315.662 253.531 315.394 253.838 315.141C259.298 310.094 266.566 307 274.496 307H651.851C660.217 307 667.824 310.436 673.341 315.952L673.365 315.976L673.389 315.952C678.915 321.479 682.346 329.113 682.346 337.495V396.963ZM348.154 409.211H725.506C735.542 409.211 743.752 417.46 743.752 427.458V662.999C743.752 672.997 735.504 681.246 725.506 681.246H348.154C338.156 681.246 329.908 673.035 329.908 662.999V427.458C329.908 417.422 338.118 409.211 348.154 409.211Z" fill="#005968" stroke="black" stroke-miterlimit="22.926"/>
</svg>
