<svg xmlns="http://www.w3.org/2000/svg" xmlns:xlink="http://www.w3.org/1999/xlink" version="1.1" x="0px" y="0px" viewBox="0 0 48 60" enable-background="new 0 0 48 48" xml:space="preserve"><g><path d="M45.3,31.9V21.3C45.3,9.6,35.8,0,24,0S2.7,9.6,2.7,21.3v10.6C1,33.3,0,35.4,0,37.7v2.6C0,44.6,3.4,48,7.7,48V30   c-0.2,0-0.5,0-0.7,0v-8.7c0-9.4,7.6-17,17-17c9.4,0,17,7.6,17,17v8.7c-0.2,0-0.5,0-0.7,0v18c4.3,0,7.7-3.4,7.7-7.7v-2.6   C48,35.4,47,33.3,45.3,31.9z"/><path d="M35.4,32.8v12.5c0,1.5,1.2,2.8,2.8,2.8V30C36.6,30,35.4,31.3,35.4,32.8z"/><path d="M9.8,30v18c1.5,0,2.8-1.2,2.8-2.8V32.8C12.6,31.3,11.4,30,9.8,30z"/></g></svg>