<svg width="16" height="16" viewBox="0 0 16 16" fill="none" xmlns="http://www.w3.org/2000/svg">
<path fill-rule="evenodd" clip-rule="evenodd" d="M2.16675 6.68667C2.16675 4.88667 3.74675 3.5 5.60008 3.5C6.55541 3.5 7.39675 3.948 8.00008 4.528C8.60341 3.948 9.44408 3.5 10.4001 3.5C12.2534 3.5 13.8334 4.88667 13.8334 6.68667C13.8334 7.92 13.3074 9.004 12.5787 9.92133C11.8521 10.836 10.9001 11.6127 9.98942 12.244C9.64075 12.4853 9.28941 12.7073 8.96675 12.8713C8.66475 13.0253 8.31675 13.1667 8.00008 13.1667C7.68341 13.1667 7.33608 13.0253 7.03341 12.8713C6.67946 12.6847 6.33807 12.4751 6.01141 12.244C5.10008 11.6127 4.14875 10.836 3.42141 9.92133C2.69275 9.004 2.16675 7.92 2.16675 6.68667ZM5.60008 4.5C4.21341 4.5 3.16675 5.52 3.16675 6.68667C3.16675 7.622 3.56408 8.49333 4.20408 9.29867C4.84541 10.1053 5.70875 10.818 6.58075 11.422C6.91075 11.6507 7.22075 11.8447 7.48741 11.9807C7.77275 12.126 7.93808 12.1667 8.00008 12.1667C8.06208 12.1667 8.22742 12.126 8.51342 11.98C8.82736 11.8138 9.13021 11.6274 9.42008 11.422C10.2914 10.818 11.1547 10.106 11.7961 9.29867C12.4361 8.49333 12.8334 7.622 12.8334 6.68667C12.8334 5.52 11.7867 4.5 10.4001 4.5C9.60408 4.5 8.86008 4.97533 8.39675 5.57933C8.35006 5.64018 8.29 5.68946 8.22122 5.72338C8.15244 5.7573 8.07677 5.77494 8.00008 5.77494C7.92339 5.77494 7.84773 5.7573 7.77894 5.72338C7.71016 5.68946 7.6501 5.64018 7.60341 5.57933C7.14008 4.97533 6.39675 4.5 5.60008 4.5Z" fill="#005968"/>
</svg>
