<svg xmlns:cc="http://creativecommons.org/ns#" xmlns:dc="http://purl.org/dc/elements/1.1/" xmlns:inkscape="http://www.inkscape.org/namespaces/inkscape" xmlns:rdf="http://www.w3.org/1999/02/22-rdf-syntax-ns#" xmlns:sodipodi="http://sodipodi.sourceforge.net/DTD/sodipodi-0.dtd" xmlns:svg="http://www.w3.org/2000/svg" xmlns="http://www.w3.org/2000/svg" xmlns:xlink="http://www.w3.org/1999/xlink" version="1.1" x="0px" y="0px" viewBox="0 0 512 640" style="enable-background:new 0 0 512 512;" xml:space="preserve"><g><path d="M506,428.1c0,12.7-10.3,23-23,23c-8.3,0-64.9,0-64.9,0H49c0,0-15.3,0-20,0c-12.7,0-23-10.3-23-23   c0-6.3,41.4-85.1,41.4-85.1c3.6-9.4,14-16.9,23-16.9h371.2c9,0,19.4,7.5,23,16.9C464.6,343,506,418.9,506,428.1z M424.8,85.7H87.2   v164v34.1h17h258.8h61.9v-45.6V85.7 M430.4,59.7c11.2,0,20.4,9.2,20.4,20.3v158.1c0,0,0,39.5,0,48.6c0,12.7-10.3,23-23,23   c-8.3,0-64.9,0-64.9,0H104.1c0,0-15.3,0-20,0c-12.7,0-23-10.3-23-23c0-6.3,0-37.1,0-37.1V80c0-11.1,9.2-20.3,20.4-20.3H430.4   L430.4,59.7z M355.2,103.8c-6.6,0-9.9,8-5.1,12.6l41.4,41.2c2.9,3,7.6,3,10.5,0.1c2.9-2.9,2.9-7.6-0.1-10.5L360.5,106   C359.1,104.6,357.2,103.8,355.2,103.8L355.2,103.8z M310.4,104.8c-6.6,0-9.9,8-5.1,12.6l85.2,84.7c2.9,2.9,7.6,2.9,10.5,0   c2.9-2.9,2.9-7.5,0-10.4l-85.2-84.7C314.3,105.6,312.4,104.8,310.4,104.8L310.4,104.8L310.4,104.8z M312,393.2   c-0.2-1.4-3-2.6-6.2-2.6h-99.6c-3.2,0-6,1.2-6.2,2.6l-3.2,22.8c0,0-0.6,4.4-0.7,5.3c-0.3,1.9,2.7,3.4,6.7,3.4c1.4,0,6.2,0,6.2,0   h80.2c0,0,17.6,0,20.1,0c3.9,0,6.9-1.5,6.7-3.4c-0.2-1.3-1-7-1-7L312,393.2z"/></g></svg>