<svg xmlns="http://www.w3.org/2000/svg" xmlns:xlink="http://www.w3.org/1999/xlink" version="1.1" x="0px" y="0px" viewBox="0 0 100 125" enable-background="new 0 0 100 100" xml:space="preserve"><g><path d="M33,44h9c0.83,0,2-0.31,2-1V33c0-0.69-1.17-1-2-1h-9c-0.83,0-2,0.31-2,1v10C31,43.69,32.17,44,33,44z"/><path d="M33,67h9c0.83,0,2-0.31,2-1V56c0-0.69-1.17-1-2-1h-9c-0.83,0-2,0.31-2,1v10C31,66.69,32.17,67,33,67z"/><path d="M58,67h9c0.83,0,2-0.31,2-1V56c0-0.69-1.17-1-2-1h-9c-0.83,0-2,0.31-2,1v10C56,66.69,57.17,67,58,67z"/><path d="M13,18v64c0,2.041,0.959,3,3,3h68c2.041,0,3-0.959,3-3V18c0-2.041-0.959-3-3-3H16C13.959,15,13,15.959,13,18z M54,33   c0-2.061,2.073-3,4-3h9c1.927,0,4,0.939,4,3v10c0,2.061-2.073,3-4,3h-9c-1.927,0-4-0.939-4-3V33z M54,56c0-2.061,2.073-3,4-3h9   c1.927,0,4,0.939,4,3v10c0,2.061-2.073,3-4,3h-9c-1.927,0-4-0.939-4-3V56z M29,33c0-2.061,2.073-3,4-3h9c1.927,0,4,0.939,4,3v10   c0,2.061-2.073,3-4,3h-9c-1.927,0-4-0.939-4-3V33z M29,56c0-2.061,2.073-3,4-3h9c1.927,0,4,0.939,4,3v10c0,2.061-2.073,3-4,3h-9   c-1.927,0-4-0.939-4-3V56z"/><path d="M58,44h9c0.83,0,2-0.31,2-1V33c0-0.69-1.17-1-2-1h-9c-0.83,0-2,0.31-2,1v10C56,43.69,57.17,44,58,44z"/></g></svg>