<svg xmlns="http://www.w3.org/2000/svg" xmlns:xlink="http://www.w3.org/1999/xlink" xmlns:serif="http://www.serif.com/" viewBox="0 0 32 40" version="1.1" xml:space="preserve" style="" x="0px" y="0px" fill-rule="evenodd" clip-rule="evenodd" stroke-linejoin="round" stroke-miterlimit="2"><g transform="matrix(1,0,0,1,0,-240)"><path d="M7,247L5,247C3.343,247 2,248.343 2,250L2,262C2,263.657 3.343,265 5,265L7,265L7,268C7,269.105 7.895,270 9,270L23,270C24.105,270 25,269.105 25,268L25,265L27,265C28.657,265 30,263.657 30,262L30,250C30,248.343 28.657,247 27,247L25,247L25,244C25,242.895 24.105,242 23,242L9,242C7.895,242 7,242.895 7,244L7,247ZM9,260L23,260L23,264L23,268L9,268L9,260ZM23,253L25,253C25.552,253 26,252.552 26,252C26,251.448 25.552,251 25,251L23,251C22.448,251 22,251.448 22,252C22,252.552 22.448,253 23,253ZM9,244C9,244 23,244 23,244L23,247C23,247 9,247 9,247L9,244Z"/></g></svg>