<svg width="45" height="45" viewBox="0 0 45 45" fill="none" xmlns="http://www.w3.org/2000/svg">
<circle cx="22.5" cy="22.5" r="22.5" fill="#E6EEF0"/>
<g clip-path="url(#clip0_14_65)">
<path d="M27.024 18.988L29.284 16.728C27.592 14.394 24.885 13 22 13C17.038 13 13 17.037 13 22C13 26.963 17.038 31 22 31C26.962 31 31 26.963 31 22H34C34 28.617 28.617 34 22 34C15.383 34 10 28.617 10 22C10 15.383 15.383 10 22 10C25.687 10 29.147 11.715 31.416 14.596L34 12.012V17.842C34 18.475 33.487 18.988 32.854 18.988H27.024ZM26 20V19.5C26 17.92 24.941 16.597 23.5 16.163V15H20.5V16.163C19.059 16.597 18 17.92 18 19.5C18 21.028 18.917 22.383 20.335 22.949L22.551 23.836C22.824 23.945 23 24.206 23 24.5C23 24.775 22.776 25 22.5 25H21.5C21.224 25 21 24.775 21 24.5V24H18V24.5C18 26.08 19.059 27.403 20.5 27.837V29H23.5V27.837C24.941 27.403 26 26.08 26 24.5C26 22.972 25.083 21.617 23.665 21.051L21.449 20.164C21.176 20.055 21 19.794 21 19.5C21 19.225 21.224 19 21.5 19H22.5C22.776 19 23 19.225 23 19.5V20H26Z" fill="#005968"/>
</g>
<defs>
<clipPath id="clip0_14_65">
<rect width="24" height="24" fill="white" transform="translate(10 10)"/>
</clipPath>
</defs>
</svg>
