<svg width="16" height="16" viewBox="0 0 16 16" fill="none" xmlns="http://www.w3.org/2000/svg">
<path d="M3.0001 6.66667C3.0001 5.69421 3.3864 4.76158 4.07404 4.07394C4.76167 3.38631 5.6943 3 6.66676 3C7.63922 3 8.57185 3.38631 9.25949 4.07394C9.94712 4.76158 10.3334 5.69421 10.3334 6.66667C10.3334 7.63913 9.94712 8.57176 9.25949 9.25939C8.57185 9.94703 7.63922 10.3333 6.66676 10.3333C5.6943 10.3333 4.76167 9.94703 4.07404 9.25939C3.3864 8.57176 3.0001 7.63913 3.0001 6.66667ZM6.66676 2C5.92054 2.00006 5.18522 2.17907 4.52247 2.52202C3.85972 2.86496 3.28888 3.36184 2.85783 3.97097C2.42677 4.5801 2.14808 5.28371 2.04512 6.0228C1.94216 6.76188 2.01795 7.51488 2.26611 8.21863C2.51428 8.92237 2.92759 9.55634 3.47137 10.0674C4.01516 10.5784 4.67356 10.9515 5.39136 11.1556C6.10915 11.3596 6.8654 11.3885 7.59667 11.2398C8.32793 11.0912 9.0129 10.7694 9.5941 10.3013L13.1468 13.8533C13.1925 13.9025 13.2477 13.9419 13.3091 13.9692C13.3704 13.9965 13.4366 14.0112 13.5037 14.0124C13.5709 14.0136 13.6376 14.0012 13.6998 13.9761C13.7621 13.9509 13.8186 13.9135 13.8661 13.866C13.9136 13.8185 13.951 13.762 13.9762 13.6997C14.0013 13.6375 14.0137 13.5708 14.0125 13.5037C14.0113 13.4365 13.9966 13.3703 13.9693 13.309C13.942 13.2476 13.9026 13.1924 13.8534 13.1467L10.3014 9.594C10.8537 8.90836 11.2007 8.08049 11.3025 7.206C11.4042 6.33152 11.2565 5.44608 10.8764 4.65197C10.4964 3.85785 9.8994 3.18745 9.1545 2.71818C8.4096 2.24892 7.54715 1.99994 6.66676 2Z" fill="#005968"/>
</svg>
