<svg width="45" height="45" viewBox="0 0 45 45" fill="none" xmlns="http://www.w3.org/2000/svg">
<circle cx="22.5" cy="22.5" r="22.5" fill="#E6EEF0"/>
<path d="M34 20C34 17.243 31.757 15 29 15H27V14C27 12.346 25.654 11 24 11H22V13H24C24.552 13 25 13.449 25 14V27H12V23H10V29H12.037C12.013 29.165 12 29.331 12 29.5C12 31.43 13.57 33 15.5 33C17.43 33 19 31.43 19 29.5C19 29.331 18.987 29.165 18.963 29H25.037C25.013 29.165 25 29.331 25 29.5C25 31.43 26.57 33 28.5 33C30.43 33 32 31.43 32 29.5C32 29.331 31.987 29.165 31.963 29H34V20ZM17 29.5C17 30.327 16.327 31 15.5 31C14.673 31 14 30.327 14 29.5C14 29.311 14.037 29.144 14.091 29H16.91C16.964 29.144 17 29.311 17 29.5ZM29 17C30.654 17 32 18.346 32 20V21H27V17H29ZM30 29.5C30 30.327 29.327 31 28.5 31C27.673 31 27 30.327 27 29.5C27 29.311 27.037 29.144 27.091 29H29.91C29.964 29.144 30 29.311 30 29.5ZM27 27V23H32V27H27ZM20 13H10V11H20V13ZM18 17H10V15H18V17ZM16 21H10V19H16V21Z" fill="#005968"/>
</svg>
