<svg width="16" height="16" viewBox="0 0 16 16" fill="none" xmlns="http://www.w3.org/2000/svg">
<path d="M2.5 3.50002C2.36739 3.50002 2.24021 3.5527 2.14645 3.64647C2.05268 3.74024 2 3.86741 2 4.00002C2 4.13263 2.05268 4.25981 2.14645 4.35357C2.24021 4.44734 2.36739 4.50002 2.5 4.50002H3.61L4.922 9.75002C5.0335 10.195 5.432 10.5 5.8905 10.5H11.6255C12.077 10.5 12.4605 10.2 12.579 9.76502L13.875 5.00002H5.5L5.75 6.00002H12.578L11.625 9.50002H5.89L4.5785 4.25002C4.52432 4.03464 4.39944 3.84366 4.22384 3.70768C4.04824 3.5717 3.83209 3.49857 3.61 3.50002H2.5ZM11 10.5C10.1775 10.5 9.5 11.1775 9.5 12C9.5 12.8225 10.1775 13.5 11 13.5C11.8225 13.5 12.5 12.8225 12.5 12C12.5 11.1775 11.8225 10.5 11 10.5ZM6.5 10.5C5.6775 10.5 5 11.1775 5 12C5 12.8225 5.6775 13.5 6.5 13.5C7.3225 13.5 8 12.8225 8 12C8 11.1775 7.3225 10.5 6.5 10.5ZM6.5 11.5C6.782 11.5 7 11.718 7 12C7 12.282 6.782 12.5 6.5 12.5C6.218 12.5 6 12.282 6 12C6 11.718 6.218 11.5 6.5 11.5ZM11 11.5C11.282 11.5 11.5 11.718 11.5 12C11.5 12.282 11.282 12.5 11 12.5C10.718 12.5 10.5 12.282 10.5 12C10.5 11.718 10.718 11.5 11 11.5Z" fill="#005968"/>
</svg>
