<svg xmlns:dc="http://purl.org/dc/elements/1.1/" xmlns:cc="http://creativecommons.org/ns#" xmlns:rdf="http://www.w3.org/1999/02/22-rdf-syntax-ns#" xmlns:svg="http://www.w3.org/2000/svg" xmlns="http://www.w3.org/2000/svg" xmlns:sodipodi="http://sodipodi.sourceforge.net/DTD/sodipodi-0.dtd" xmlns:inkscape="http://www.inkscape.org/namespaces/inkscape" version="1.1" x="0px" y="0px" viewBox="0 0 100 125"><g transform="translate(0,-952.36218)"><path style="text-indent:0;text-transform:none;direction:ltr;block-progression:tb;baseline-shift:baseline;color:#000000;enable-background:accumulate;" d="m 29.609352,958.36216 c -5.9112,0 -10.75,4.82469 -10.75,10.71875 l 0,66.56249 c 0,5.903 4.8419,10.7188 10.75,10.7188 l 40.781296,0 c 5.908,0 10.75,-4.819 10.75,-10.7188 l 0,-66.56249 c 0,-5.89083 -4.8388,-10.71875 -10.75,-10.71875 l -40.781296,0 z m 20.375,8.1875 c 4.5809,0 8.3438,3.76694 8.3438,8.34375 0,4.5768 -3.7629,8.3125 -8.3438,8.3125 -4.5809,0 -8.3124,-3.74016 -8.3124,-8.3125 0,-4.57234 3.7315,-8.34375 8.3124,-8.34375 z m 0,34.78124 c 10.1715,0 18.468796,8.2667 18.468796,18.4063 0,10.1498 -8.297296,18.4375 -18.468796,18.4375 -10.1612,0 -18.4374,-8.2877 -18.4374,-18.4375 0,-10.1396 8.2762,-18.4063 18.4374,-18.4063 z" fill="#000000" fill-opacity="1" fill-rule="evenodd" stroke="none" marker="none" visibility="visible" display="inline" overflow="visible"/><path d="m 49.996952,1011.4312 c -4.5766,0 -8.3326,3.7405 -8.3326,8.3128 0,4.5724 3.7516,8.3244 8.3326,8.3244 4.5809,0 8.3443,-3.7476 8.3443,-8.3244 0,-4.5768 -3.7678,-8.3128 -8.3443,-8.3128 z" style="text-indent:0;text-transform:none;direction:ltr;block-progression:tb;baseline-shift:baseline;color:#000000;enable-background:accumulate;" fill="#000000" fill-opacity="1" fill-rule="evenodd" stroke="none" marker="none" visibility="visible" display="inline" overflow="visible"/><path d="m 49.996952,970.55743 c 2.4246,0 4.3446,1.91784 4.3446,4.32469 0,2.40684 -1.92,4.32469 -4.3446,4.32469 -2.4247,0 -4.3329,-1.91338 -4.3329,-4.32469 0,-2.41131 1.9082,-4.32469 4.3329,-4.32469 z" style="text-indent:0;text-transform:none;direction:ltr;block-progression:tb;baseline-shift:baseline;color:#000000;enable-background:accumulate;" fill="#000000" fill-opacity="1" fill-rule="evenodd" stroke="none" marker="none" visibility="visible" display="inline" overflow="visible"/></g></svg>