<svg xmlns="http://www.w3.org/2000/svg" xmlns:xlink="http://www.w3.org/1999/xlink" version="1.1" x="0px" y="0px" viewBox="0 0 100 125" enable-background="new 0 0 100 100" xml:space="preserve"><g><path d="M82.6,22H30.2l8-10.2C39,10.9,38.8,9.7,38,9s-2.1-0.5-2.8,0.3l-9,11.4l-9-11.4c-0.7-0.9-1.9-1-2.8-0.3   c-0.9,0.7-1,1.9-0.3,2.8L22,22h-4.6c-3.8,0-6.9,3.1-6.9,6.9v47.7c0,3.8,3.1,6.9,6.9,6.9h5v4.2c0,2.1,1.7,3.8,3.8,3.8h8.2   c2.1,0,3.8-1.7,3.8-3.8v-4.2h23.7v4.2c0,2.1,1.7,3.8,3.8,3.8h8.2c2.1,0,3.8-1.7,3.8-3.8v-4.2h5c3.8,0,6.9-3.1,6.9-6.9V28.9   C89.5,25.1,86.4,22,82.6,22z M76.1,68.1c0,3.2-2.6,5.9-5.9,5.9H25.9c-3.2,0-5.9-2.6-5.9-5.9V37.4c0-3.2,2.6-5.9,5.9-5.9h44.3   c3.2,0,5.9,2.6,5.9,5.9V68.1z M81.1,61.1L81.1,61.1c-1.2,0-2.1-0.9-2.1-2s0.9-2,2-2s2,0.9,2,2S82.2,61.1,81.1,61.1z M81.1,44.3   L81.1,44.3c-1.2,0-2.1-0.9-2.1-2s0.9-2,2-2s2,0.9,2,2S82.2,44.3,81.1,44.3z"/></g></svg>