<svg width="16" height="16" viewBox="0 0 16 16" fill="none" xmlns="http://www.w3.org/2000/svg">
<path d="M8 2.5C6.073 2.5 4.5 4.073 4.5 6C4.5 7.205 5.115 8.276 6.047 8.9065C4.2635 9.6715 3 11.44 3 13.5H4C4 11.285 5.785 9.5 8 9.5C10.215 9.5 12 11.285 12 13.5H13C13 11.44 11.7365 9.671 9.953 8.906C10.4288 8.58502 10.8186 8.15225 11.0883 7.64562C11.358 7.13899 11.4994 6.57395 11.5 6C11.5 4.073 9.927 2.5 8 2.5ZM8 3.5C9.3865 3.5 10.5 4.6135 10.5 6C10.5 7.3865 9.3865 8.5 8 8.5C6.6135 8.5 5.5 7.3865 5.5 6C5.5 4.6135 6.6135 3.5 8 3.5Z" fill="#005968"/>
</svg>
