<svg xmlns="http://www.w3.org/2000/svg" xmlns:xlink="http://www.w3.org/1999/xlink" version="1.1" x="0px" y="0px" viewBox="0 0 48 60" style="enable-background:new 0 0 48 48;" xml:space="preserve"><g><path d="M35,12.5h-3H16h-3c-0.28,0-0.5,0.22-0.5,0.5v22c0,0.28,0.22,0.5,0.5,0.5h3h16h3c0.28,0,0.5-0.22,0.5-0.5V13   C35.5,12.72,35.28,12.5,35,12.5z M24.5,24c0,0.28-0.22,0.5-0.5,0.5h-5c-0.28,0-0.5-0.22-0.5-0.5s0.22-0.5,0.5-0.5h4.5V16   c0-0.28,0.22-0.5,0.5-0.5s0.5,0.22,0.5,0.5V24z"/><polygon points="16.64,11.5 31.36,11.5 29.61,4.5 18.39,4.5  "/><polygon points="18.39,43.5 29.61,43.5 31.36,36.5 16.64,36.5  "/></g></svg>